HIERARCHY
ROOT Hips
{
	OFFSET -0.148888 88.448799 3.733362
	CHANNELS 6 Xposition Yposition Zposition Zrotation Yrotation Xrotation 
	JOINT Spine
	{
		OFFSET 0.000000 8.814246 -2.080107
		CHANNELS 3 Zrotation Yrotation Xrotation
		JOINT Spine1
		{
			OFFSET 0.000000 8.844141 0.000000
			CHANNELS 3 Zrotation Yrotation Xrotation
			JOINT Spine2
			{
				OFFSET -0.000000 11.682268 -0.000000
				CHANNELS 3 Zrotation Yrotation Xrotation
				JOINT Spine3
				{
					OFFSET -0.000000 11.746700 -0.000000
					CHANNELS 3 Zrotation Yrotation Xrotation
					JOINT Neck
					{
						OFFSET 0.000000 17.658264 -0.000000
						CHANNELS 3 Zrotation Yrotation Xrotation
						JOINT Neck1
						{
							OFFSET 0.000000 5.101515 0.000000
							CHANNELS 3 Zrotation Yrotation Xrotation
							JOINT Head
							{
								OFFSET -0.000000 5.101515 -0.000000
								CHANNELS 3 Zrotation Yrotation Xrotation
								JOINT HeadEnd
								{
									OFFSET 0.000000 11.655085 -0.000000
									CHANNELS 3 Zrotation Yrotation Xrotation
									End Site
									{
										OFFSET 0.000000 0.000000 0.000000
									}
								}
							}
						}
					}
					JOINT RightShoulder
					{
						OFFSET -2.625389 11.175210 -0.000000
						CHANNELS 3 Zrotation Yrotation Xrotation
						JOINT RightArm
						{
							OFFSET -0.000000 10.434715 0.000000
							CHANNELS 3 Zrotation Yrotation Xrotation
							JOINT RightForeArm
							{
								OFFSET 0.000000 29.628420 0.000000
								CHANNELS 3 Zrotation Yrotation Xrotation
								JOINT RightHand
								{
									OFFSET 0.000000 22.857611 0.000000
									CHANNELS 3 Zrotation Yrotation Xrotation
									JOINT RightHandThumb1
									{
										OFFSET -2.867323 3.959563 2.944291
										CHANNELS 3 Zrotation Yrotation Xrotation
										JOINT RightHandThumb2
										{
											OFFSET -0.000000 3.350399 0.000000
											CHANNELS 3 Zrotation Yrotation Xrotation
											JOINT RightHandThumb3
											{
												OFFSET -0.000000 3.756509 0.000000
												CHANNELS 3 Zrotation Yrotation Xrotation
												JOINT RightHandThumb4
												{
													OFFSET 0.000000 3.147345 0.000000
													CHANNELS 3 Zrotation Yrotation Xrotation
													End Site
													{
														OFFSET 0.000000 0.000000 0.000000
													}
												}
											}
										}
									}
									JOINT RightHandIndex1
									{
										OFFSET -0.086752 10.030893 2.345280
										CHANNELS 3 Zrotation Yrotation Xrotation
										JOINT RightHandIndex2
										{
											OFFSET 0.000000 4.061090 -0.000000
											CHANNELS 3 Zrotation Yrotation Xrotation
											JOINT RightHandIndex3
											{
												OFFSET -0.000000 3.248873 0.000000
												CHANNELS 3 Zrotation Yrotation Xrotation
												JOINT RightHandIndex4
												{
													OFFSET 0.000000 2.639709 -0.000000
													CHANNELS 3 Zrotation Yrotation Xrotation
													End Site
													{
														OFFSET 0.000000 0.000000 0.000000
													}
												}
											}
										}
									}
									JOINT RightHandMiddle1
									{
										OFFSET 0.104102 9.502952 0.006768
										CHANNELS 3 Zrotation Yrotation Xrotation
										JOINT RightHandMiddle2
										{
											OFFSET 0.000000 4.568727 0.000000
											CHANNELS 3 Zrotation Yrotation Xrotation
											JOINT RightHandMiddle3
											{
												OFFSET 0.000000 3.654981 -0.000000
												CHANNELS 3 Zrotation Yrotation Xrotation
												JOINT RightHandMiddle4
												{
													OFFSET -0.000000 2.741236 0.000000
													CHANNELS 3 Zrotation Yrotation Xrotation
													End Site
													{
														OFFSET 0.000000 0.000000 0.000000
													}
												}
											}
										}
									}
									JOINT RightHandRing1
									{
										OFFSET 0.086752 8.921708 -2.267442
										CHANNELS 3 Zrotation Yrotation Xrotation
										JOINT RightHandRing2
										{
											OFFSET -0.000000 4.061090 0.000000
											CHANNELS 3 Zrotation Yrotation Xrotation
											JOINT RightHandRing3
											{
												OFFSET -0.000000 3.654981 0.000000
												CHANNELS 3 Zrotation Yrotation Xrotation
												JOINT RightHandRing4
												{
													OFFSET -0.000000 2.741236 0.000000
													CHANNELS 3 Zrotation Yrotation Xrotation
													End Site
													{
														OFFSET 0.000000 0.000000 0.000000
													}
												}
											}
										}
									}
									JOINT RightHandPinky1
									{
										OFFSET -0.173504 7.976997 -4.467199
										CHANNELS 3 Zrotation Yrotation Xrotation
										JOINT RightHandPinky2
										{
											OFFSET -0.000000 3.350399 0.000000
											CHANNELS 3 Zrotation Yrotation Xrotation
											JOINT RightHandPinky3
											{
												OFFSET -0.000000 2.842763 0.000000
												CHANNELS 3 Zrotation Yrotation Xrotation
												JOINT RightHandPinky4
												{
													OFFSET 0.000000 2.639709 -0.000000
													CHANNELS 3 Zrotation Yrotation Xrotation
													End Site
													{
														OFFSET 0.000000 0.000000 0.000000
													}
												}
											}
										}
									}
									JOINT RightForeArmEnd
									{
										OFFSET 0.000000 0.000000 0.000000
										CHANNELS 3 Zrotation Yrotation Xrotation
										End Site
										{
											OFFSET 0.000000 0.000000 0.000000
										}
									}
								}
								JOINT RightArmEnd
								{
									OFFSET 0.000000 0.000000 0.000000
									CHANNELS 3 Zrotation Yrotation Xrotation
									End Site
									{
										OFFSET 0.000000 0.000000 0.000000
									}
								}
							}
						}
					}
					JOINT LeftShoulder
					{
						OFFSET 2.625389 11.175210 0.000000
						CHANNELS 3 Zrotation Yrotation Xrotation
						JOINT LeftArm
						{
							OFFSET -0.000000 10.813635 -0.000000
							CHANNELS 3 Zrotation Yrotation Xrotation
							JOINT LeftForeArm
							{
								OFFSET 0.000000 28.724781 0.000000
								CHANNELS 3 Zrotation Yrotation Xrotation
								JOINT LeftHand
								{
									OFFSET 0.644384 25.716167 -0.328871
									CHANNELS 3 Zrotation Yrotation Xrotation
									JOINT LeftHandThumb1
									{
										OFFSET 2.867323 3.959563 2.944291
										CHANNELS 3 Zrotation Yrotation Xrotation
										JOINT LeftHandThumb2
										{
											OFFSET 0.000000 3.350399 -0.000000
											CHANNELS 3 Zrotation Yrotation Xrotation
											JOINT LeftHandThumb3
											{
												OFFSET 0.000000 3.756509 0.000000
												CHANNELS 3 Zrotation Yrotation Xrotation
												JOINT LeftHandThumb4
												{
													OFFSET -0.000000 3.100000 0.000000
													CHANNELS 3 Zrotation Yrotation Xrotation
													End Site
													{
														OFFSET 0.000000 0.000000 0.000000
													}
												}
											}
										}
									}
									JOINT LeftHandIndex1
									{
										OFFSET 0.086752 10.030893 2.345280
										CHANNELS 3 Zrotation Yrotation Xrotation
										JOINT LeftHandIndex2
										{
											OFFSET -0.000000 4.061090 0.000000
											CHANNELS 3 Zrotation Yrotation Xrotation
											JOINT LeftHandIndex3
											{
												OFFSET 0.000000 3.248873 0.000000
												CHANNELS 3 Zrotation Yrotation Xrotation
												JOINT LeftHandIndex4
												{
													OFFSET -0.000000 2.639709 -0.000000
													CHANNELS 3 Zrotation Yrotation Xrotation
													End Site
													{
														OFFSET 0.000000 0.000000 0.000000
													}
												}
											}
										}
									}
									JOINT LeftHandMiddle1
									{
										OFFSET -0.104102 9.502952 0.006768
										CHANNELS 3 Zrotation Yrotation Xrotation
										JOINT LeftHandMiddle2
										{
											OFFSET -0.000000 4.568727 -0.000000
											CHANNELS 3 Zrotation Yrotation Xrotation
											JOINT LeftHandMiddle3
											{
												OFFSET 0.000000 3.654981 0.000000
												CHANNELS 3 Zrotation Yrotation Xrotation
												JOINT LeftHandMiddle4
												{
													OFFSET 0.000000 2.741236 0.000000
													CHANNELS 3 Zrotation Yrotation Xrotation
													End Site
													{
														OFFSET 0.000000 0.000000 0.000000
													}
												}
											}
										}
									}
									JOINT LeftHandRing1
									{
										OFFSET -0.086752 8.921708 -2.267442
										CHANNELS 3 Zrotation Yrotation Xrotation
										JOINT LeftHandRing2
										{
											OFFSET 0.000000 4.061090 0.000000
											CHANNELS 3 Zrotation Yrotation Xrotation
											JOINT LeftHandRing3
											{
												OFFSET 0.000000 3.654981 0.000000
												CHANNELS 3 Zrotation Yrotation Xrotation
												JOINT LeftHandRing4
												{
													OFFSET -0.000000 2.741236 0.000000
													CHANNELS 3 Zrotation Yrotation Xrotation
													End Site
													{
														OFFSET 0.000000 0.000000 0.000000
													}
												}
											}
										}
									}
									JOINT LeftHandPinky1
									{
										OFFSET 0.173504 7.976997 -4.467199
										CHANNELS 3 Zrotation Yrotation Xrotation
										JOINT LeftHandPinky2
										{
											OFFSET -0.000000 3.350399 -0.000000
											CHANNELS 3 Zrotation Yrotation Xrotation
											JOINT LeftHandPinky3
											{
												OFFSET -0.000000 2.842763 0.000000
												CHANNELS 3 Zrotation Yrotation Xrotation
												JOINT LeftHandPinky4
												{
													OFFSET 0.000000 2.639709 0.000000
													CHANNELS 3 Zrotation Yrotation Xrotation
													End Site
													{
														OFFSET 0.000000 0.000000 0.000000
													}
												}
											}
										}
									}
									JOINT LeftForeArmEnd
									{
										OFFSET 0.000000 0.000000 0.000000
										CHANNELS 3 Zrotation Yrotation Xrotation
										End Site
										{
											OFFSET 0.000000 0.000000 0.000000
										}
									}
								}
								JOINT LeftArmEnd
								{
									OFFSET 0.000000 0.000000 0.000000
									CHANNELS 3 Zrotation Yrotation Xrotation
									End Site
									{
										OFFSET 0.000000 0.000000 0.000000
									}
								}
							}
						}
					}
				}
			}
		}
	}
	JOINT RightUpLeg
	{
		OFFSET -11.289943 -0.000000 -0.000000
		CHANNELS 3 Zrotation Yrotation Xrotation
		JOINT RightLeg
		{
			OFFSET 0.000000 -38.200325 0.000000
			CHANNELS 3 Zrotation Yrotation Xrotation
			JOINT RightFoot
			{
				OFFSET 0.000000 -39.900856 -0.000000
				CHANNELS 3 Zrotation Yrotation Xrotation
				JOINT RightToeBase
				{
					OFFSET 0.000000 0.000000 15.261641
					CHANNELS 3 Zrotation Yrotation Xrotation
					JOINT RightToeBaseEnd
					{
						OFFSET -0.000000 -0.000000 7.370709
						CHANNELS 3 Zrotation Yrotation Xrotation
						End Site
						{
							OFFSET 0.000000 0.000000 0.000000
						}
					}
				}
				JOINT RightLegEnd
				{
					OFFSET 0.000000 0.000000 0.000000
					CHANNELS 3 Zrotation Yrotation Xrotation
					End Site
					{
						OFFSET 0.000000 0.000000 0.000000
					}
				}
			}
			JOINT RightUpLegEnd
			{
				OFFSET 0.000000 0.000000 0.000000
				CHANNELS 3 Zrotation Yrotation Xrotation
				End Site
				{
					OFFSET 0.000000 0.000000 0.000000
				}
			}
		}
	}
	JOINT LeftUpLeg
	{
		OFFSET 11.315661 -0.000000 0.000000
		CHANNELS 3 Zrotation Yrotation Xrotation
		JOINT LeftLeg
		{
			OFFSET -0.000000 -38.200325 -0.000000
			CHANNELS 3 Zrotation Yrotation Xrotation
			JOINT LeftFoot
			{
				OFFSET 0.000000 -39.900856 -0.000000
				CHANNELS 3 Zrotation Yrotation Xrotation
				JOINT LeftToeBase
				{
					OFFSET 0.000000 0.000000 15.261641
					CHANNELS 3 Zrotation Yrotation Xrotation
					JOINT LeftToeBaseEnd
					{
						OFFSET 0.000000 -0.000000 7.539996
						CHANNELS 3 Zrotation Yrotation Xrotation
						End Site
						{
							OFFSET 0.000000 0.000000 0.000000
						}
					}
				}
				JOINT LeftLegEnd
				{
					OFFSET 0.000000 0.000000 0.000000
					CHANNELS 3 Zrotation Yrotation Xrotation
					End Site
					{
						OFFSET 0.000000 0.000000 0.000000
					}
				}
			}
			JOINT LeftUpLegEnd
			{
				OFFSET 0.000000 0.000000 0.000000
				CHANNELS 3 Zrotation Yrotation Xrotation
				End Site
				{
					OFFSET 0.000000 0.000000 0.000000
				}
			}
		}
	}
}
MOTION
Frames: 5
Frame Time: 0.016667
1.699492 88.083008 4.360624 -0.020656 1.472175 -11.651066 2.209968 -0.043138 7.759481 0.154913 0.257472 2.234163 -1.912453 2.079657 4.590490 -2.044351 0.950144 3.522862 3.530494 -0.071286 3.320726 1.209671 1.461656 -3.882015 0.264102 -1.016691 -18.768810 0.000000 0.000000 0.000000 87.911781 0.649000 10.947174 58.151031 -3.907444 4.276804 -0.849207 17.967068 90.218636 -45.938992 -5.094257 13.319214 4.186756 -0.956064 42.990868 -0.000011 -0.000004 -10.199883 -0.000016 0.000030 -7.099962 0.000003 0.000013 -0.000012 -18.060867 -0.040751 9.647229 0.101640 -0.045833 0.081872 0.143078 -0.041361 0.066558 -0.000000 0.000001 0.000005 -18.953987 -0.015506 3.494456 -0.450945 -0.031521 0.054812 -0.218806 -0.006421 0.060061 0.000005 0.000185 0.000009 -21.028435 0.017192 -5.084026 -1.627229 0.064580 -0.195319 -1.568843 0.041743 -0.129073 0.000013 0.000862 0.000016 -19.884052 0.084721 -13.624293 -2.038042 0.223280 -0.550795 -1.931777 0.152507 -0.517357 -0.001132 -0.000003 -0.000010 0.000000 0.000000 0.000000 0.000000 0.000000 0.000000 -86.571548 0.053510 5.183243 -60.408779 -6.905044 -3.111928 0.136884 -15.034541 108.160400 43.552471 24.017048 18.043999 -3.047423 0.656008 43.476166 0.000015 0.000013 -7.892234 -0.000019 -0.000027 -5.656090 -0.001601 0.000003 -0.000813 26.362097 -0.054861 14.781435 -1.678851 -0.016575 -0.116030 -2.008822 0.007001 -0.125390 -0.000002 0.002592 -0.000010 24.383932 -0.025942 8.069814 -1.729931 -0.007212 -0.053759 -1.652113 -0.005006 -0.023588 0.000449 -0.000018 0.000143 20.807484 0.051199 -1.498041 -1.048309 0.041419 0.044357 -0.814114 0.013580 0.029020 0.001747 0.000025 0.000008 17.267805 0.109215 -9.889198 -1.337451 0.075553 0.316824 -1.226573 0.037155 0.235299 0.000156 0.000011 -0.000035 0.000000 0.000000 0.000000 0.000000 0.000000 0.000000 -9.203081 -13.589978 14.283376 -0.169327 -1.115575 7.965912 4.769726 -13.542228 18.263021 -1.552341 1.459045 -17.928955 0.000000 0.000000 0.000000 0.000000 0.000000 0.000000 0.000000 0.000000 0.000000 4.077748 -4.058196 9.276897 0.139800 0.701064 12.532150 -0.861191 6.765744 16.369499 0.572399 -0.923399 -20.187267 0.000000 0.000000 0.000000 0.000000 0.000000 0.000000 0.000000 0.000000 0.000000 
1.736062 88.073288 4.382190 0.016208 1.631307 -11.579112 2.232338 -0.048194 7.784669 0.145010 0.259084 2.255615 -1.925901 2.124720 4.602511 -2.057827 0.968728 3.563651 3.583552 -0.077652 3.186995 1.199344 1.451957 -3.891865 0.271629 -1.006104 -18.688549 0.000000 0.000000 0.000000 87.708008 0.658076 10.960385 57.963734 -3.583158 4.118216 -0.859323 17.823679 90.064140 -46.668373 -5.700428 13.589495 4.113358 -0.943844 43.026096 -0.000011 -0.000003 -10.003866 -0.000016 0.000030 -6.965551 0.000003 0.000013 -0.000012 -18.335108 -0.040659 9.782326 0.100112 -0.045095 0.088131 0.150074 -0.041280 0.072001 -0.000000 0.000000 0.000005 -19.250816 -0.015080 3.604459 -0.446822 -0.031242 0.055998 -0.215212 -0.006244 0.061666 0.000005 0.000178 0.000009 -21.369135 0.017466 -4.980464 -1.609421 0.064496 -0.195402 -1.549671 0.041906 -0.129145 0.000013 0.000896 0.000017 -20.214539 0.082913 -13.511613 -2.021998 0.222823 -0.552589 -1.906202 0.151125 -0.519529 -0.001120 -0.000003 -0.000011 0.000000 0.000000 0.000000 0.000000 0.000000 0.000000 -86.366852 0.051505 5.139029 -60.134121 -6.799782 -3.448261 0.116007 -14.853921 108.142181 44.151031 24.256197 18.091988 -3.051223 0.653888 43.477020 0.000015 0.000013 -7.895435 -0.000016 -0.000026 -5.656103 -0.001628 0.000003 -0.000825 26.286961 -0.055174 14.787258 -1.676841 -0.018700 -0.126752 -2.007513 0.005442 -0.135181 -0.000001 0.002615 -0.000010 24.350054 -0.026301 8.079619 -1.734829 -0.007764 -0.056669 -1.656687 -0.005594 -0.026530 0.000480 -0.000018 0.000143 20.841576 0.050538 -1.495749 -1.080663 0.041766 0.049590 -0.842148 0.013640 0.032149 0.001702 0.000025 0.000008 17.348310 0.107656 -9.865646 -1.401314 0.074705 0.326155 -1.287830 0.037257 0.241897 0.000156 0.000011 -0.000036 0.000000 0.000000 0.000000 0.000000 0.000000 0.000000 -9.265132 -13.674190 14.143346 -0.168943 -1.116954 8.077729 4.813841 -13.557916 18.242579 -1.548140 1.461276 -17.963350 0.000000 0.000000 0.000000 0.000000 0.000000 0.000000 0.000000 0.000000 0.000000 4.030101 -4.145249 9.195433 0.138641 0.699341 12.550671 -0.855620 6.714797 16.376892 0.571808 -0.929149 -20.216856 0.000000 0.000000 0.000000 0.000000 0.000000 0.000000 0.000000 0.000000 0.000000 
1.773509 88.062996 4.406223 0.053682 1.789465 -11.506769 2.253989 -0.053206 7.808453 0.132675 0.261627 2.272044 -1.936704 2.163292 4.618596 -2.071580 0.985013 3.598406 3.644655 -0.088498 3.052550 1.189938 1.442244 -3.902936 0.278394 -0.996210 -18.611593 0.000000 0.000000 0.000000 87.518890 0.663939 10.961081 57.824017 -3.280309 3.916662 -0.870243 17.699162 89.860771 -47.339645 -6.275751 13.786027 4.041799 -0.931790 43.060184 -0.000011 -0.000003 -9.814242 -0.000016 0.000030 -6.836111 0.000003 0.000014 -0.000013 -18.608868 -0.040479 9.916912 0.105494 -0.044168 0.093532 0.163868 -0.041020 0.076677 -0.000000 0.000000 0.000005 -19.547733 -0.014612 3.710359 -0.435208 -0.030833 0.056677 -0.203741 -0.005988 0.062786 0.000005 0.000171 0.000009 -21.708235 0.017775 -4.886229 -1.581268 0.064288 -0.194846 -1.519923 0.041924 -0.128687 0.000013 0.000925 0.000017 -20.540794 0.081419 -13.413242 -1.992245 0.222004 -0.552517 -1.867866 0.149416 -0.519806 -0.001103 -0.000003 -0.000011 0.000000 0.000000 0.000000 0.000000 0.000000 0.000000 -86.178825 0.053240 5.093490 -59.931690 -6.686142 -3.806169 0.097484 -14.689240 108.102753 44.723789 24.400812 18.108679 -3.051978 0.651565 43.478733 0.000015 0.000013 -7.892008 -0.000012 -0.000027 -5.652215 -0.001657 0.000002 -0.000834 26.215687 -0.055488 14.803889 -1.679093 -0.020582 -0.135517 -2.010772 0.004115 -0.143118 -0.000001 0.002631 -0.000010 24.321655 -0.026644 8.094353 -1.743412 -0.008175 -0.058707 -1.664596 -0.006034 -0.028749 0.000524 -0.000018 0.000142 20.891891 0.050017 -1.497421 -1.111684 0.041942 0.053967 -0.869379 0.013566 0.034552 0.001649 0.000025 0.000008 17.457436 0.106703 -9.853414 -1.458509 0.073615 0.333182 -1.343280 0.037065 0.246633 0.000153 0.000011 -0.000036 0.000000 0.000000 0.000000 0.000000 0.000000 0.000000 -9.325955 -13.759818 14.010148 -0.168676 -1.118340 8.188382 4.858761 -13.578066 18.214535 -1.543961 1.463338 -17.994354 0.000000 0.000000 0.000000 0.000000 0.000000 0.000000 0.000000 0.000000 0.000000 3.987163 -4.226120 9.118122 0.137780 0.698533 12.560258 -0.855595 6.657659 16.381390 0.572343 -0.935333 -20.242075 0.000000 0.000000 0.000000 0.000000 0.000000 0.000000 0.000000 0.000000 0.000000 
1.811606 88.051987 4.432581 0.091254 1.946866 -11.436529 2.274409 -0.058254 7.831796 0.117517 0.265094 2.284095 -1.943695 2.193987 4.638723 -2.084476 0.998091 3.627236 3.713756 -0.103346 2.919612 1.181582 1.433059 -3.914768 0.284834 -0.986724 -18.538700 0.000000 0.000000 0.000000 87.348145 0.666671 10.950528 57.730106 -3.002047 3.680928 -0.881452 17.595964 89.621384 -47.950157 -6.809868 13.919891 3.972954 -0.920072 43.092667 -0.000011 -0.000002 -9.633410 -0.000016 0.000030 -6.713316 0.000003 0.000014 -0.000013 -18.880177 -0.040233 10.044418 0.116691 -0.043057 0.097925 0.183420 -0.040581 0.080478 0.000000 0.000000 0.000005 -19.840248 -0.014126 3.807791 -0.417113 -0.030303 0.056811 -0.185448 -0.005653 0.063376 0.000005 0.000165 0.000010 -22.037889 0.018138 -4.803543 -1.543634 0.063941 -0.193562 -1.480540 0.041786 -0.127618 0.000013 0.000951 0.000017 -20.854483 0.080281 -13.330074 -1.949964 0.220750 -0.550125 -1.817788 0.147344 -0.517871 -0.001082 -0.000003 -0.000012 0.000000 0.000000 0.000000 0.000000 0.000000 0.000000 -86.008987 0.057661 5.048636 -59.796719 -6.564988 -4.176875 0.080635 -14.542469 108.035431 45.264660 24.459637 18.097118 -3.048366 0.648904 43.481861 0.000014 0.000013 -7.878923 -0.000008 -0.000027 -5.642354 -0.001689 0.000002 -0.000839 26.156233 -0.055830 14.827618 -1.683564 -0.022215 -0.142315 -2.016733 0.003021 -0.149153 -0.000001 0.002639 -0.000009 24.304846 -0.026978 8.112197 -1.753785 -0.008458 -0.059875 -1.674334 -0.006334 -0.030244 0.000580 -0.000019 0.000141 20.959511 0.049637 -1.502936 -1.140267 0.041940 0.057395 -0.894309 0.013355 0.036162 0.001589 0.000025 0.000008 17.592520 0.106311 -9.851790 -1.508048 0.072233 0.337583 -1.392109 0.036562 0.249276 0.000147 0.000011 -0.000036 0.000000 0.000000 0.000000 0.000000 0.000000 0.000000 -9.384725 -13.845424 13.886336 -0.168502 -1.119734 8.297998 4.904491 -13.604962 18.178394 -1.539943 1.465243 -18.021387 0.000000 0.000000 0.000000 0.000000 0.000000 0.000000 0.000000 0.000000 0.000000 3.949263 -4.301561 9.046520 0.137195 0.698540 12.562348 -0.860446 6.595833 16.382788 0.574026 -0.941871 -20.262531 0.000000 0.000000 0.000000 0.000000 0.000000 0.000000 0.000000 0.000000 0.000000 
1.850027 88.040215 4.461063 0.128059 2.103556 -11.370813 2.293181 -0.063419 7.855773 0.099463 0.269349 2.292615 -1.945820 2.216025 4.662744 -2.095370 1.007385 3.651268 3.790128 -0.121276 2.791471 1.174356 1.425285 -3.926179 0.291189 -0.977266 -18.470913 0.000000 0.000000 0.000000 87.197876 0.666527 10.930310 57.679386 -2.746562 3.422531 -0.892531 17.515383 89.358482 -48.499897 -7.296564 14.004453 3.907095 -0.908773 43.123405 -0.000011 -0.000002 -9.462229 -0.000015 0.000030 -6.597677 0.000003 0.000014 -0.000014 -19.150196 -0.039954 10.159847 0.132253 -0.041788 0.101285 0.207287 -0.039984 0.083388 0.000000 -0.000000 0.000005 -20.127367 -0.013639 3.893441 -0.394022 -0.029674 0.056416 -0.161840 -0.005246 0.063439 0.000004 0.000159 0.000010 -22.354122 0.018567 -4.734208 -1.498215 0.063458 -0.191536 -1.433268 0.041499 -0.125920 0.000013 0.000974 0.000017 -21.150560 0.079515 -13.263071 -1.897367 0.219047 -0.545165 -1.758002 0.144917 -0.513603 -0.001056 -0.000003 -0.000013 0.000000 0.000000 0.000000 0.000000 0.000000 0.000000 -85.857979 0.063751 5.006324 -59.721260 -6.438187 -4.549827 0.064932 -14.413619 107.932846 45.767193 24.442778 18.058544 -3.039430 0.645760 43.486820 0.000014 0.000013 -7.853900 -0.000004 -0.000027 -5.624960 -0.001723 0.000002 -0.000839 26.116724 -0.056208 14.854457 -1.688896 -0.023606 -0.147303 -2.024143 0.002144 -0.153392 -0.000001 0.002637 -0.000009 24.305984 -0.027311 8.130912 -1.764755 -0.008632 -0.060245 -1.685026 -0.006513 -0.031068 0.000645 -0.000019 0.000140 21.045666 0.049390 -1.512755 -1.166273 0.041763 0.059832 -0.916528 0.013011 0.036963 0.001523 0.000026 0.000008 17.750702 0.106437 -9.860868 -1.550123 0.070530 0.339141 -1.434566 0.035748 0.249681 0.000139 0.000010 -0.000036 0.000000 0.000000 0.000000 0.000000 0.000000 0.000000 -9.440322 -13.929796 13.773995 -0.168388 -1.121104 8.407246 4.950939 -13.640170 18.133953 -1.536091 1.467017 -18.044212 0.000000 0.000000 0.000000 0.000000 0.000000 0.000000 0.000000 0.000000 0.000000 3.916849 -4.373103 8.981997 0.136847 0.699202 12.558751 -0.869341 6.530272 16.380943 0.576854 -0.948645 -20.277935 0.000000 0.000000 0.000000 0.000000 0.000000 0.000000 0.000000 0.000000 0.000000 
